Coordinates
version=1
nRows=7
nColumns=40
inDegrees=yes

Units are S.I. units (second, meters, Newtons, ...)
If the header above contains a line with 'inDegrees', this indicates whether rotational values are in degrees (yes) or radians (no).

endheader
time	pelvis_tilt	pelvis_list	pelvis_rotation	pelvis_tx	pelvis_ty	pelvis_tz	hip_flexion_r	hip_adduction_r	hip_rotation_r	knee_angle_r	knee_angle_r_beta	ankle_angle_r	subtalar_angle_r	mtp_angle_r	hip_flexion_l	hip_adduction_l	hip_rotation_l	knee_angle_l	knee_angle_l_beta	ankle_angle_l	subtalar_angle_l	mtp_angle_l	lumbar_extension	lumbar_bending	lumbar_rotation	arm_flex_r	arm_add_r	arm_rot_r	elbow_flex_r	pro_sup_r	wrist_flex_r	wrist_dev_r	arm_flex_l	arm_add_l	arm_rot_l	elbow_flex_l	pro_sup_l	wrist_flex_l	wrist_dev_l
     10.69999999999999928946	      3.28166026462106996675	      2.38810079501712690941	   -175.98443961205785512902	      0.24471319279503112032	      0.77053026241258071316	     -0.92079598269385187770	     37.53078856482898117974	    -39.05587918601282382269	    -24.19310458066678037881	     45.63408388478927690812	      0.79646501492085752805	     -2.79184764021176379245	      0.00000000000000000000	      0.00000000000000000000	     45.62558531403188766262	    -41.72434222927766001021	    -14.09421552237294150700	     48.39792790681322287583	      0.84470319311673813800	     -6.23705855085490856737	      0.00000000000000000000	      0.00000000000000000000	    -53.39649272084341191658	      6.52662990002011778046	     -5.22329655865751796284	     44.29931177709060108327	      1.31932869392468532510	     18.09464987261356938575	      7.23901239418086017707	     16.27064120985091477678	      0.00000000000000000000	      0.00000000000000000000	     47.26636990863219267567	     -8.41534111292276065797	     61.58249908809513328833	      6.36683144989163629646	     76.26844492988220736152	      0.00000000000000000000	      0.00000000000000000000
     10.70500000000000007105	      3.48799596818215995597	      2.38866784377580199106	   -176.12949276580971513795	      0.24489582539987561627	      0.77238264298461822843	     -0.92083783642381633605	     37.48183651254248616169	    -38.82357826456286886696	    -24.31251070431485672430	     45.04248236791033122017	      0.78613962059152719952	     -3.21160860379492385519	      0.00000000000000000000	      0.00000000000000000000	     45.35323532364056831057	    -41.61598857274841378739	    -14.35657071949222363116	     47.85903179099152282561	      0.83529768156944073088	     -6.45228805799172366875	      0.00000000000000000000	      0.00000000000000000000	    -53.00262106654166416320	      6.46708266135499965088	     -5.22481772616501505269	     44.16570397734243158538	      1.28967971777889456320	     18.14520301585980632808	      7.18441428931117265222	     17.19679797645659746763	      0.00000000000000000000	      0.00000000000000000000	     47.04185212564632934118	     -8.21811241250429880267	     60.73097846229864416046	      6.15489465650785749773	     74.98813133819396625768	      0.00000000000000000000	      0.00000000000000000000
     10.71000000000000085265	      3.78201327156704580901	      2.42862026314608403510	   -176.21213610717620667856	      0.24516203653060397727	      0.77404162548758015383	     -0.92075959713641797322	     37.48523101985763616995	    -38.57874384998689976101	    -24.46929219435315516762	     44.43916118283154759183	      0.77560967946486836233	     -3.63047301096625263384	      0.00000000000000000000	      0.00000000000000000000	     45.27575255596645575906	    -41.46298521264526470986	    -14.44876170268502235672	     47.33652626007543062769	      0.82617823969507386828	     -6.68471106381240165462	      0.00000000000000000000	      0.00000000000000000000	    -52.51709940475087279310	      6.47256148570896971961	     -5.16663353143323078598	     44.04017555693972951758	      1.26988413470984395914	     18.09624900973991046271	      7.20977553504635348958	     17.04313456071320231899	      0.00000000000000000000	      0.00000000000000000000	     46.92312139672061022111	     -8.12540716131233864417	     60.31898620870705229891	      6.09901712575730492460	     75.00031427562829833278	      0.00000000000000000000	      0.00000000000000000000
     10.71499999999999985789	      3.99416466887968413246	      2.46850370916941352917	   -176.27714990567756103701	      0.24527657250406123546	      0.77589141981694409456	     -0.92068157878815326534	     37.36750473018321372365	    -38.37395677896331136481	    -24.73769294945610397463	     43.85777924652904147251	      0.76546265046476968941	     -4.08478503443489415758	      0.00000000000000000000	      0.00000000000000000000	     45.06788479190013418929	    -41.31317149648315734112	    -14.59065233966006580602	     46.76111391550018225871	      0.81613539972561566227	     -6.90981365933573776772	      0.00000000000000000000	      0.00000000000000000000	    -52.09040175034482444971	      6.50708563163549502661	     -5.17277994689967446362	     43.92633469251955347090	      1.18717022542077210723	     18.25025221640394690326	      6.95751485157014393224	     18.48765609463563919235	      0.00000000000000000000	      0.00000000000000000000	     46.61017350463993125231	     -7.98533590124830272572	     60.10906689635261557214	      6.02935267384378814626	     72.94441352383186938368	      0.00000000000000000000	      0.00000000000000000000
     10.72000000000000063949	      4.13586451529667886717	      2.49088160588490925562	   -176.28943702831776363382	      0.24541540357700866726	      0.77790666936521690733	     -0.92054133435816132280	     37.10908864151144115340	    -38.18764277098691195533	    -25.06742380942123205045	     43.22398802044025245550	      0.75440090679926852246	     -4.49463516116874206574	      0.00000000000000000000	      0.00000000000000000000	     44.79651855696879181323	    -41.11599612700990036274	    -14.70282489703896011690	     46.17095544316853050759	      0.80583519127488845157	     -7.10623483765858310335	      0.00000000000000000000	      0.00000000000000000000	    -51.74250845103421880822	      6.55223087250292923756	     -5.26981180699110041132	     43.70635073319979824191	      1.18070959327554581009	     18.22637700312521502610	      7.34645460516457138311	     18.00500382703833324172	      0.00000000000000000000	      0.00000000000000000000	     46.39830357084323964045	     -8.14908903331683909244	     60.33318855240111133753	      6.18248466689894637938	     73.54513847846706653399	      0.00000000000000000000	      0.00000000000000000000
     10.72499999999999964473	      4.48840192617400202124	      2.54527810177600999353	   -176.34283560461867068625	      0.24575789996410732363	      0.77948642534945999927	     -0.92052906748678808846	     37.17132742937495493152	    -37.92288769364822798025	    -25.19810557973093878559	     42.62720270295865532262	      0.74398503808165494799	     -4.95616430750078507117	      0.00000000000000000000	      0.00000000000000000000	     44.80315434401118324104	    -40.92361228768426428815	    -14.69698341248866491071	     45.58998633298137548309	      0.79569536744974089792	     -7.36366005199989803742	      0.00000000000000000000	      0.00000000000000000000	    -51.17071808010534539335	      6.58713354871985945493	     -5.18208476133986195578	     43.67495397882940011414	      1.14723334773567153810	     18.48650561941625980467	      6.84741411045638237454	     18.50389405769987760664	      0.00000000000000000000	      0.00000000000000000000	     46.22067691328784633242	     -8.02118932608846790799	     60.75395122423738314410	      6.11262244724102643545	     73.07546694357417038646	      0.00000000000000000000	      0.00000000000000000000
     10.73000000000000042633	      4.78575196626468990502	      2.61580290294414963270	   -176.35671238180745490354	      0.24590451215977229826	      0.78119817627537024851	     -0.92039762670243552289	     37.08806739614720271447	    -37.67982894890315748171	    -25.43935875339138164009	     41.98421646071663104749	      0.73276281110950580722	     -5.37410738070206495109	      0.00000000000000000000	      0.00000000000000000000	     44.76009356525486282408	    -40.74942603635836491094	    -14.70499003946682137212	     45.01755207194139529747	      0.78570450484337250874	     -7.60038852454329827424	      0.00000000000000000000	      0.00000000000000000000	    -50.64141560052824786453	      6.66537239702414741060	     -5.17462406668405350274	     43.50479573819789180789	      1.04596436640412338015	     18.55880823089849585017	      6.79013345816539537481	     18.69723766751138427367	      0.00000000000000000000	      0.00000000000000000000	     46.00762037191137210357	     -7.95635699665644580136	     60.59823401202115888964	      6.07120294364683221744	     72.83091312923770033194	      0.00000000000000000000	      0.00000000000000000000
